<?xml version="1.0" encoding="utf-8"?>
<!-- Generator: Adobe Illustrator 24.2.1, SVG Export Plug-In . SVG Version: 6.00 Build 0)  -->
<svg version="1.1" id="Layer_1" xmlns="http://www.w3.org/2000/svg" xmlns:xlink="http://www.w3.org/1999/xlink" x="0px" y="0px"
	 viewBox="0 0 960 560" style="enable-background:new 0 0 960 560;" xml:space="preserve">
<style type="text/css">
	.st0{display:none;}
	.st1{fill:none;stroke:#859EAC;stroke-width:20;stroke-linecap:round;stroke-linejoin:round;stroke-miterlimit:10;}
	.st2{display:none;opacity:0.29;}
	.st3{display:inline;fill:none;stroke:#000000;stroke-width:14;stroke-linecap:round;stroke-linejoin:round;stroke-miterlimit:10;}
</style>
<g id="Layer_1_1_" class="st0">
	
		<image style="display:inline;overflow:visible;opacity:0.29;enable-background:new    ;" width="842" height="595" xlink:href="7A659A5A.png"  transform="matrix(1.1627 0 0 1.1627 107 -154.8112)">
	</image>
</g>
<g id="Layer_3_copy">
	<path class="st1" d="M540,448.8c-25.5,32-63.4,52.2-105.7,52.2C357.4,501,295,433.8,295,351s62.4-150,139.3-150
		c6.7,0,13.3,0.5,19.7,1.5c-75.6,53.7-66.9,149.1-55.1,177.1C421.7,433.7,482.1,465.4,540,448.8z"/>
</g>
<g id="Layer_3" class="st2">
	<path class="st3" d="M497.5,360.5c1.4-1.3-1-3.3-2.8-3.4c-8.6-0.6-16.1,5.9-21.6,12.6c-6.6,8-12.4,18.1-10.5,28.3
		c2,11.2,12.5,18.8,23,23.2c12.4,5.2,27.2,7.5,39,1c9.1-4.9,15.2-14.4,18.2-24.3s3.5-20.4,3.9-30.8c0.5-12,1-24,1.4-36
		c2.4-59.9,4.8-120,1.1-179.8"/>
	<path class="st3" d="M454.2,384.7c-11-26-6.5-55.6-1.9-83.4c4.3-25.7,8.6-51.6,17.3-76.2c4.9-14.1,11.2-27.6,15.6-41.9
		c4-12.9,6.3-26.4,7-39.9c1-20.8-3.1-43.9-19.2-57c-13.6-11.1-33.5-12.5-49.8-5.9c-16.3,6.6-29,20.2-37.2,35.7
		c-8.3,15.5-12.4,32.8-15.3,50.1c-2,11.9-3.4,24.1-1,35.9"/>
	<path class="st3" d="M557.1,437.6c22.9-17.6,37.4-45.8,38.4-74.7c-1.1,4.1-2.1,8.2-3.2,12.3"/>
	<path class="st3" d="M595.8,329.2c-2.9,1-4.9,4.1-4.5,7.2c0.4,3,3.1,5.6,6.1,5.9"/>
	<path class="st3" d="M589,419.7c-1.7,1.8-1.9,4.6-1,6.9s2.8,4,4.8,5.5c8.4,6.2,19.7,8.4,29.7,5.6"/>
</g>
<g id="Layer_4">
	<path class="st1" d="M540,449c18-7,31.8-22.4,38-39c5.1-13.6,6-24,8-40"/>
	<path class="st1" d="M587,333.2c-2.3,0.4-3.4,3.2-2.9,5.4"/>
	<g>
		<path class="st1" d="M548.6,341.4c-8.5-10.7-23.2-15.5-36.7-13.8c-13.5,1.7-25.9,9.5-34.9,19.7c-7.8,8.9-13.5,20.1-14.1,31.9
			c-1.1,19.2,12.5,38.2,31,43.5s40-3.9,49.2-20.8c5.6-10.3,6.6-22.4,7.5-34c6.5-88.8,5.9-118.1-0.5-206.9"/>
	</g>
	<path class="st1" d="M333,248c-1.7-42.6,15.3-127,45.5-157c5.3-5.3,11-10.2,17.7-13.5c17.4-8.7,33.4-11.6,51.8-5.5
		c15,5,34,23,43,40c10.3,19.5,13.8,39.8,15,49c3,23,3,49,3,63c0,9.1-6,36-23,56c-10.2,12-20.4,22.1-37,38
		c-15.5,14.8-21.7,32.7-24,50c-5,37,17.2,62.2,24,69"/>
	<path class="st1" d="M452,202c16,2,38,7,54,15"/>
</g>
</svg>
